<?xml version="1.0" encoding="UTF-8"?>
<svg id="Capa_1" data-name="Capa 1" xmlns="http://www.w3.org/2000/svg" xmlns:xlink="http://www.w3.org/1999/xlink" viewBox="0 0 150 150">
  <defs>
    <style>
      .cls-1 {
        fill: url(#Degradado_sin_nombre_6-3);
      }

      .cls-1, .cls-2, .cls-3, .cls-4, .cls-5, .cls-6, .cls-7, .cls-8, .cls-9 {
        stroke-width: 0px;
      }

      .cls-2 {
        fill: #48c6ec;
      }

      .cls-3 {
        fill: url(#Degradado_sin_nombre_6-5);
      }

      .cls-4 {
        fill: #001638;
      }

      .cls-5 {
        fill: url(#Degradado_sin_nombre_6-2);
      }

      .cls-6 {
        fill: url(#Degradado_sin_nombre_6-4);
      }

      .cls-7 {
        fill: url(#Degradado_sin_nombre_6-6);
      }

      .cls-8 {
        fill: #007bb5;
      }

      .cls-9 {
        fill: url(#Degradado_sin_nombre_6);
      }
    </style>
    <linearGradient id="Degradado_sin_nombre_6" data-name="Degradado sin nombre 6" x1="7.6" y1="75" x2="44.8" y2="75" gradientUnits="userSpaceOnUse">
      <stop offset="0" stop-color="#21a4dd"/>
      <stop offset=".26" stop-color="#21a4dd"/>
      <stop offset=".85" stop-color="#44beea"/>
      <stop offset="1" stop-color="#44beea"/>
    </linearGradient>
    <linearGradient id="Degradado_sin_nombre_6-2" data-name="Degradado sin nombre 6" x1="33.34" y1="75" x2="60.76" y2="75" xlink:href="#Degradado_sin_nombre_6"/>
    <linearGradient id="Degradado_sin_nombre_6-3" data-name="Degradado sin nombre 6" x1="41.41" y1="75.27" x2="43.91" y2="75.27" xlink:href="#Degradado_sin_nombre_6"/>
    <linearGradient id="Degradado_sin_nombre_6-4" data-name="Degradado sin nombre 6" x1="44.16" y1="74.97" x2="46.87" y2="74.97" xlink:href="#Degradado_sin_nombre_6"/>
    <linearGradient id="Degradado_sin_nombre_6-5" data-name="Degradado sin nombre 6" x1="46.99" y1="75.27" x2="49.59" y2="75.27" xlink:href="#Degradado_sin_nombre_6"/>
    <linearGradient id="Degradado_sin_nombre_6-6" data-name="Degradado sin nombre 6" x1="49.76" y1="75.27" x2="52.02" y2="75.27" xlink:href="#Degradado_sin_nombre_6"/>
  </defs>
  <g>
    <path class="cls-9" d="m15.4,62.22c-2.3,2.06-3.6,4.97-3.9,8.73h6.2c.03-.86.19-1.67.48-2.44.29-.77.69-1.45,1.19-2.04.5-.59,1.12-1.06,1.84-1.4.72-.34,1.52-.51,2.41-.51,1.38,0,2.55.33,3.51,1,.96.67,1.45,1.78,1.45,3.35,0,1.04-.28,1.94-.83,2.71-.55.77-1.23,1.46-2.04,2.07-.81.61-1.68,1.15-2.62,1.62-.93.47-1.8.93-2.59,1.38-1.56.8-3.09,1.63-4.59,2.49-1.5.86-2.85,1.83-4.04,2.91-1.19,1.08-2.17,2.33-2.94,3.75-.76,1.42-1.21,3.1-1.33,5.02h37.21l-2.27-5.42h-25.71c.83-.86,1.85-1.66,3.08-2.4,1.22-.74,2.51-1.49,3.86-2.24,1.35-.76,2.7-1.53,4.06-2.33,1.36-.8,2.58-1.68,3.65-2.64,1.07-.96,1.94-2.04,2.62-3.24.67-1.2,1.01-2.55,1.01-4.06,0-1.6-.28-2.99-.85-4.18-.57-1.18-1.34-2.16-2.32-2.93-.98-.77-2.11-1.34-3.4-1.71-1.29-.37-2.66-.56-4.13-.56-3.7,0-6.7,1.03-9,3.09"/>
    <path class="cls-5" d="m33.78,74.67c.29-1.54.72-3.06,1.29-4.54.57-1.48,1.3-2.9,2.19-4.23.89-1.34,1.93-2.51,3.11-3.51,1.18-1,2.53-1.8,4.03-2.38,1.51-.58,3.17-.87,4.98-.87,1.91,0,3.58.28,5.01.85,1.43.57,2.61,1.36,3.55,2.38.94,1.02,1.64,2.23,2.11,3.64.47,1.41.7,2.98.7,4.69,0,1.48-.15,3.02-.44,4.61-.29,1.59-.74,3.12-1.34,4.61-.6,1.48-1.36,2.9-2.28,4.23-.92,1.34-2,2.5-3.23,3.49-1.23.99-2.63,1.78-4.18,2.36-1.56.58-3.29.87-5.2.87s-3.61-.31-4.98-.94c-1.38-.63-2.49-1.48-3.33-2.55-.84-1.08-1.46-2.32-1.85-3.73-.39-1.41-.58-2.9-.58-4.47,0-1.46.15-2.95.44-4.5m6.64,7.84c.15.66.4,1.22.75,1.7.36.48.84.87,1.46,1.16.62.29,1.39.44,2.33.44,1.17,0,2.19-.3,3.09-.89.89-.6,1.66-1.38,2.31-2.34.65-.96,1.2-2.04,1.65-3.23.45-1.19.82-2.39,1.09-3.58.28-1.19.47-2.32.58-3.38.11-1.06.17-1.94.17-2.64,0-.76-.09-1.47-.27-2.14-.18-.67-.47-1.25-.88-1.75-.41-.49-.92-.89-1.56-1.18-.63-.29-1.39-.44-2.26-.44-1.13,0-2.14.3-3.01.89-.87.6-1.64,1.38-2.28,2.34-.65.96-1.19,2.04-1.63,3.25-.44,1.21-.79,2.41-1.05,3.6-.26,1.19-.45,2.33-.56,3.4-.11,1.08-.17,1.98-.17,2.71s.07,1.42.22,2.07"/>
    <g>
      <path class="cls-1" d="m43.42,73.93l.49,2.69h-.37l-.12-.81h-1.13l-.47.81h-.4l1.62-2.69h.39Zm-.05,1.58l-.2-1.26h0l-.72,1.26h.93Z"/>
      <path class="cls-6" d="m45.11,73.93l.96,2.22h0l.45-2.22h.35l-.57,2.69h-.38l-.95-2.21h0l-.46,2.21h-.35l.57-2.69h.38Zm.18-.33s.04-.09.07-.13c.03-.04.06-.07.1-.1.04-.03.09-.04.14-.04.05,0,.1.01.15.03.05.02.1.04.14.06.05.02.09.04.13.06.04.02.08.03.11.02.06,0,.1-.01.12-.05.02-.03.05-.07.07-.11h.19s-.03.1-.05.14c-.02.05-.05.09-.08.13-.03.04-.07.07-.11.1-.04.03-.09.04-.15.04-.04,0-.09,0-.14-.03-.05-.02-.1-.04-.15-.06-.05-.02-.09-.04-.14-.06-.04-.02-.08-.02-.11-.02-.05,0-.09.02-.11.05-.03.03-.05.07-.06.11h-.2s.03-.09.05-.14"/>
      <path class="cls-3" d="m47.09,74.88c.07-.2.17-.37.29-.52.13-.15.28-.27.47-.36.18-.09.39-.13.62-.13.17,0,.33.03.47.09.14.06.26.15.35.25.1.11.17.23.22.38.05.15.08.3.08.47,0,.21-.03.41-.1.61-.07.2-.16.37-.29.52s-.28.27-.46.36c-.18.09-.38.13-.6.13-.37,0-.65-.1-.85-.31-.2-.2-.3-.49-.3-.87,0-.22.03-.43.1-.62m.31.98c.03.11.08.2.15.28.07.08.15.14.25.18.1.04.22.06.35.06.18,0,.34-.04.47-.12.14-.08.25-.18.34-.3.09-.13.16-.27.21-.43.05-.16.07-.32.07-.48,0-.13-.02-.24-.05-.35-.03-.11-.08-.2-.15-.28-.07-.08-.14-.14-.24-.19-.09-.05-.2-.07-.33-.07-.19,0-.35.04-.49.12-.14.08-.26.18-.35.31-.09.13-.16.27-.21.43-.05.16-.07.32-.07.48,0,.13.02.25.05.36"/>
      <path class="cls-7" d="m51.62,74.45c-.03-.07-.07-.13-.12-.17-.05-.04-.12-.07-.2-.09-.08-.02-.16-.03-.26-.03-.07,0-.13,0-.21.02s-.14.04-.2.08c-.06.04-.11.08-.15.14-.04.06-.06.12-.06.2,0,.07.01.12.03.17.02.05.05.09.09.12.04.03.09.06.14.08.05.02.11.04.17.06l.36.1c.08.02.16.05.24.08.08.03.15.08.21.13.06.05.11.12.15.21.04.08.05.18.05.3,0,.14-.03.26-.1.36-.06.1-.15.19-.25.25-.1.07-.21.12-.34.15-.12.03-.25.05-.37.05-.16,0-.31-.02-.44-.05-.14-.04-.25-.09-.34-.17-.09-.08-.17-.17-.21-.29-.05-.12-.07-.26-.05-.43h.36c0,.12,0,.22.04.3.03.08.08.15.14.2.06.05.14.09.23.11.09.02.19.03.3.03.08,0,.16,0,.25-.03.08-.02.15-.05.22-.09.06-.04.11-.09.15-.16.04-.07.06-.14.06-.23,0-.07-.01-.13-.04-.17-.03-.05-.06-.09-.1-.12-.04-.03-.09-.06-.15-.08-.06-.02-.12-.04-.18-.06l-.37-.1c-.08-.02-.16-.05-.23-.09-.07-.04-.14-.08-.19-.14-.06-.05-.1-.12-.13-.19-.03-.07-.05-.16-.05-.26,0-.13.03-.24.09-.34.06-.1.13-.18.22-.24.09-.07.2-.11.31-.15.12-.03.24-.05.36-.05.13,0,.26.02.38.05.12.03.22.09.31.15.09.07.16.16.21.27.05.11.07.24.07.39h-.36c0-.11-.01-.19-.04-.27"/>
    </g>
  </g>
  <g>
    <path class="cls-4" d="m84.98,65.97c1.9.18,3.44.86,4.62,2.04,1.24,1.25,1.86,2.88,1.86,4.89,0,1.86-.55,3.38-1.64,4.55-1.16,1.24-2.77,1.92-4.84,2.04-.13.01-.23.02-.3.02h-.32c-.06,0-.16,0-.29-.02-2.08-.11-3.7-.79-4.85-2.04-1.09-1.18-1.64-2.69-1.64-4.55,0-2.01.62-3.64,1.87-4.89,1.17-1.18,2.71-1.86,4.62-2.04.2-.02.35-.04.45-.04s.25.01.46.04m-.46,11.26c1.06,0,1.96-.44,2.71-1.32.75-.88,1.12-1.95,1.12-3.19s-.37-2.32-1.12-3.2c-.75-.88-1.66-1.32-2.71-1.32s-1.96.44-2.71,1.32c-.75.88-1.13,1.95-1.13,3.2s.38,2.31,1.13,3.19c.75.88,1.65,1.32,2.71,1.32"/>
    <path class="cls-4" d="m105.13,66.65v12.33s-.06.41-.36.41h-3.14c-.37,0-.68-.42-.68-.42l-5.15-8.38v8.45c0,.33-.36.35-.36.35h-2.44s-.34-.05-.34-.41.02-12.08,0-12.36c-.03-.27.37-.35.37-.35h2.63c.29,0,.49.3.49.3l5.84,8.51v-8.42c0-.34.4-.38.4-.38h2.35s.39.08.39.38"/>
    <path class="cls-4" d="m115.35,66.69l-.35,1.59s-.19.44-.58.44h-4.15s-.42.05-.42.38v1.1c0,.52.45.45.45.45h4.21c.43,0,.4.4.4.4v1.62s-.09.4-.4.4h-4.24s-.42,0-.42.36v3.11s-.1.47.42.47h4.76s.42,0,.42.36v1.59s-.08.5-.54.5h-7.69s-.56.09-.56-.56v-12.18c0-.43.4-.44.4-.44h7.99c.4,0,.3.42.3.42"/>
    <path class="cls-4" d="m115.35,66.69l-.35,1.59s-.19.44-.58.44h-4.15s-.42.05-.42.38v1.1c0,.52.45.45.45.45h4.21c.43,0,.4.4.4.4v1.62s-.09.4-.4.4h-4.24s-.42,0-.42.36v3.11s-.1.47.42.47h4.76s.42,0,.42.36v1.59s-.08.5-.54.5h-7.69s-.56.09-.56-.56v-12.18c0-.43.4-.44.4-.44h7.99c.4,0,.3.42.3.42"/>
    <path class="cls-4" d="m132.6,79.26c-.03.1-.1.15-.21.15h-2.83c-.07,0-.13-.03-.17-.09-.04-.06-.05-.12-.03-.19l4.15-12.74c.04-.1.11-.16.21-.16h3.88c.1,0,.17.05.21.16l4.26,12.74c.02.07.01.13-.04.19-.05.06-.1.09-.17.09h-3c-.11,0-.17-.05-.21-.15l-.99-3.07c-.04-.1-.11-.15-.21-.15h-3.72c-.11,0-.18.05-.21.15l-.92,3.07Zm4.26-5.45c.07,0,.13-.03.17-.09.04-.05.05-.12.04-.18l-.8-3.04c-.07-.25-.15-.55-.26-.9-.13-.41-.21-.68-.25-.81-.03-.11-.1-.16-.21-.16s-.18.05-.21.16c-.21.73-.36,1.3-.47,1.71l-.77,3.04c-.02.07,0,.13.03.18.04.06.1.09.18.09h2.56Z"/>
    <path class="cls-4" d="m73.33,74.38v.07c-.04.33-.12.63-.24.87-.11.23-.26.43-.45.59-.19.16-.41.28-.67.36-.27.09-.58.13-.92.13-.44,0-.85-.08-1.2-.23-.35-.15-.63-.36-.88-.65-.25-.29-.45-.67-.59-1.11-.15-.46-.22-1-.22-1.62s.07-1.16.22-1.62c.14-.44.34-.81.59-1.1.25-.29.54-.5.89-.64.36-.15.77-.22,1.23-.22.31,0,.61.04.89.13.26.08.49.2.68.36.19.15.34.33.45.55.1.18.16.37.19.59h3.67c-.08-.72-.29-1.39-.63-1.99-.34-.6-.78-1.12-1.31-1.55-.53-.42-1.13-.76-1.81-.99-.67-.23-1.39-.35-2.15-.35-.98,0-1.88.16-2.69.48-.81.33-1.52.8-2.09,1.4-.57.6-1.02,1.33-1.33,2.17-.3.83-.46,1.76-.46,2.77s.15,1.95.45,2.77c.31.84.75,1.57,1.32,2.17.57.6,1.28,1.07,2.09,1.4.8.32,1.71.48,2.7.48.78,0,1.52-.11,2.19-.33.69-.22,1.3-.56,1.82-.99.53-.43.96-.97,1.28-1.6.32-.62.52-1.34.6-2.13l.02-.18h-3.66Z"/>
    <path class="cls-8" d="m128.62,79h0s-4.51-6.64-4.51-6.64c-.07-.11-.11-.16-.23-.17-.08,0-.13.03-.2.1l-7.43,7.12s2.36,0,2.44,0c.04,0,.08-.02.11-.05h0s3.95-3.56,3.95-3.56l2.31,3.44c.03.09.12.15.22.15,0,0,0,0,.02,0h0s3.14,0,3.14,0h0c.12-.02.22-.12.22-.24,0-.06-.02-.12-.06-.16"/>
    <path class="cls-2" d="m116.52,66.61h0s4.75,6.89,4.75,6.89c.07.11.1.16.23.17.08,0,.12-.03.2-.1l15.34-14.32-14.52,10.66-2.43-3.54c-.04-.09-.12-.15-.23-.15,0,0,0,0-.02,0h0s-3.14,0-3.14,0h0c-.12.02-.22.12-.22.24,0,.06.02.12.06.16"/>
    <polygon class="cls-4" points="65.01 88.41 65.01 90.64 64.73 90.64 64.73 86.11 67.63 86.11 67.63 86.35 65.01 86.35 65.01 88.17 67.37 88.17 67.37 88.41 65.01 88.41"/>
    <rect class="cls-4" x="69.81" y="86.11" width=".28" height="4.53"/>
    <polygon class="cls-4" points="72.65 86.11 73.01 86.11 75.93 90.27 75.95 90.27 75.95 86.11 76.23 86.11 76.23 90.64 75.89 90.64 72.95 86.46 72.94 86.46 72.94 90.64 72.65 90.64 72.65 86.11"/>
    <path class="cls-4" d="m80.48,86.11l1.83,4.53h-.3l-.58-1.45h-2.22l-.59,1.45h-.3l1.86-4.53h.31Zm.85,2.84l-.99-2.56h-.01l-1.03,2.56h2.03Z"/>
    <polygon class="cls-4" points="84.38 86.11 84.74 86.11 87.67 90.27 87.68 90.27 87.68 86.11 87.97 86.11 87.97 90.64 87.63 90.64 84.68 86.46 84.67 86.46 84.67 90.64 84.38 90.64 84.38 86.11"/>
    <path class="cls-4" d="m94.13,87.46c-.06-.37-.24-.67-.53-.89-.3-.22-.64-.33-1.04-.33-.29,0-.56.05-.8.17-.24.11-.44.26-.61.46-.17.2-.29.42-.38.68-.09.26-.13.53-.13.82s.04.57.13.83c.08.26.21.48.38.68.17.2.37.35.61.46.24.11.51.16.8.16.22,0,.43-.05.62-.13.2-.09.37-.21.52-.37.15-.15.27-.33.36-.53.09-.2.14-.4.15-.61h.28c-.03.27-.09.52-.2.74-.11.23-.25.43-.42.6-.17.17-.38.3-.6.39-.22.09-.46.14-.71.14-.34,0-.64-.06-.92-.18-.27-.12-.51-.29-.7-.5-.19-.22-.34-.47-.44-.76-.1-.29-.15-.6-.15-.93s.05-.64.15-.93c.1-.29.25-.54.44-.76.19-.22.43-.38.7-.5.28-.12.58-.18.92-.18.38,0,.69.07.94.2.25.13.44.29.57.46.13.18.22.34.27.49.05.15.08.25.08.31h-.29Z"/>
    <rect class="cls-4" x="96.84" y="86.11" width=".29" height="4.53"/>
    <path class="cls-4" d="m101.37,86.11l1.83,4.53h-.31l-.58-1.45h-2.22l-.59,1.45h-.3l1.86-4.53h.31Zm.85,2.84l-.99-2.56h-.01l-1.03,2.56h2.04Z"/>
    <polygon class="cls-4" points="105.27 86.11 105.56 86.11 105.56 90.4 108.19 90.4 108.19 90.64 105.27 90.64 105.27 86.11"/>
    <path class="cls-4" d="m117.83,88.42v2.22h-.25v-.96h-.01c-.11.33-.33.59-.65.78-.32.19-.69.29-1.1.29-.34,0-.65-.06-.92-.18-.27-.12-.5-.29-.69-.5-.19-.21-.33-.46-.42-.75-.1-.29-.14-.59-.14-.92s.05-.63.15-.92c.1-.29.24-.55.43-.77.19-.22.42-.4.69-.52.27-.12.58-.19.92-.19.24,0,.46.03.68.1.22.07.41.17.58.3.18.13.32.29.43.48.12.19.19.4.23.62h-.27c-.11-.4-.3-.71-.59-.93-.29-.23-.64-.34-1.05-.34-.3,0-.58.06-.82.17-.24.11-.44.27-.6.47-.16.2-.28.43-.37.69-.08.26-.12.53-.12.82s.04.57.12.82c.08.26.2.48.36.67.16.19.36.34.6.45.24.11.51.16.82.16.53,0,.96-.16,1.28-.49.32-.33.48-.78.48-1.35h-1.71v-.24h1.95Z"/>
    <path class="cls-4" d="m120.36,86.11h1.93c.21,0,.41.02.58.06.18.04.33.11.47.2.13.09.23.21.31.36.07.15.11.33.11.54,0,.31-.09.56-.27.77-.18.21-.42.34-.73.39h0c.16.03.3.07.42.12.11.06.2.13.27.22.07.09.12.19.15.29.03.11.06.22.07.35,0,.1.02.24.02.44,0,.21.01.37.03.49.01.11.05.21.11.29h-.32c-.04-.08-.07-.17-.09-.27-.01-.11-.02-.23-.02-.38v-.41c0-.08,0-.15-.01-.2-.02-.12-.05-.23-.09-.32-.04-.09-.1-.17-.18-.24-.08-.07-.19-.13-.33-.17-.14-.04-.3-.06-.5-.06h-1.65v2.06h-.29v-4.53Zm1.93,2.23c.36,0,.64-.09.86-.26.22-.17.32-.43.32-.78,0-.16-.03-.31-.1-.43-.06-.12-.15-.22-.25-.3-.11-.08-.23-.13-.38-.17-.14-.04-.29-.05-.45-.05h-1.65v1.99h1.65Z"/>
    <path class="cls-4" d="m130.24,89.31c-.1.29-.24.54-.43.76-.19.22-.42.38-.7.5-.27.12-.58.18-.92.18s-.64-.06-.92-.18c-.28-.12-.51-.29-.7-.5-.19-.22-.34-.47-.44-.76-.1-.29-.15-.6-.15-.93s.05-.64.15-.93c.1-.29.24-.54.44-.76.19-.22.42-.38.7-.5.27-.12.58-.18.92-.18s.64.06.92.18c.28.12.51.29.7.5.19.22.33.47.43.76.1.29.15.6.15.93s-.05.64-.15.93m-3.84-.1c.08.26.21.48.38.68.17.2.37.35.61.46.24.11.51.16.8.16s.56-.06.8-.16c.24-.11.44-.26.61-.46.17-.2.29-.42.38-.68.09-.26.13-.53.13-.82s-.04-.57-.13-.82c-.09-.26-.21-.49-.38-.68-.17-.2-.37-.35-.61-.46-.23-.11-.5-.17-.8-.17s-.56.06-.8.17c-.24.11-.44.26-.61.46-.17.2-.29.43-.38.68-.09.26-.13.53-.13.82s.04.57.13.83"/>
    <path class="cls-4" d="m133.03,86.11v2.72c0,.18.02.36.05.54.03.18.1.36.2.54.1.18.24.32.44.43.2.11.45.17.77.17.28,0,.52-.04.71-.12.19-.08.35-.19.47-.33.12-.14.2-.32.25-.52.05-.21.08-.44.08-.71v-2.72h.28v2.72c0,.28-.03.54-.09.77-.06.23-.16.43-.3.61-.14.17-.33.31-.56.4-.23.1-.52.14-.86.14-.38,0-.7-.07-.94-.2-.24-.13-.42-.3-.53-.5-.11-.2-.19-.4-.22-.61-.03-.2-.05-.41-.05-.62v-2.72h.28Z"/>
    <path class="cls-4" d="m138.84,86.11h1.97c.16,0,.31.02.46.05.15.03.29.1.43.19.13.09.24.22.33.39.09.17.13.38.13.64,0,.39-.13.7-.38.92-.25.22-.61.33-1.07.33h-1.58v2.02h-.28v-4.53Zm.28,2.27h1.63c.2,0,.37-.03.52-.09.14-.06.26-.14.35-.23.09-.1.15-.2.19-.32.04-.12.06-.24.06-.36,0-.1-.01-.21-.05-.32-.03-.11-.08-.23-.16-.33-.08-.11-.19-.19-.33-.26-.14-.07-.32-.1-.54-.1h-1.67v2.03Z"/>
    <rect class="cls-4" x="64.53" y="83.17" width="77.87" height=".25"/>
  </g>
</svg>